<svg xmlns="http://www.w3.org/2000/svg" style="display: none;">
  <!-- Définition du dégradé pour les icônes de service -->
  <defs>
    <linearGradient id="serviceGradient" x1="0%" y1="0%" x2="100%" y2="100%">
      <stop offset="0%" style="stop-color:#e26d4a;stop-opacity:1" />
      <stop offset="100%" style="stop-color:#ff6b35;stop-opacity:1" />
    </linearGradient>
  </defs>

  <!-- Stethoscope Icon -->
  <symbol id="stethoscope" viewBox="0 0 24 24">
    <path fill="currentColor" d="M19 8c-1.1 0-2 .9-2 2s.9 2 2 2 2-.9 2-2-.9-2-2-2zm0 3c-.6 0-1-.4-1-1s.4-1 1-1 1 .4 1 1-.4 1-1 1z"/>
    <path fill="currentColor" d="M17.7 9.7c-.4-.4-1-.4-1.4 0-.4.4-.4 1 0 1.4.2.2.5.3.7.3s.5-.1.7-.3c.4-.4.4-1 0-1.4z"/>
    <path fill="currentColor" d="M12 2C9.8 2 8 3.8 8 6v5c0 1.1-.9 2-2 2s-2-.9-2-2V8c0-.6-.4-1-1-1s-1 .4-1 1v3c0 2.2 1.8 4 4 4 1.5 0 2.8-.8 3.5-2h1c.7 1.2 2 2 3.5 2 2.2 0 4-1.8 4-4v-1c0-.6-.4-1-1-1s-1 .4-1 1v1c0 1.1-.9 2-2 2s-2-.9-2-2V6c0-2.2-1.8-4-4-4zm2 9V6c0-1.1-.9-2-2-2s-2 .9-2 2v5h4z"/>
  </symbol>

  <!-- Microscope Icon -->
  <symbol id="microscope" viewBox="0 0 24 24">
    <path fill="currentColor" d="M9.5 12c0-.8.7-1.5 1.5-1.5s1.5.7 1.5 1.5-.7 1.5-1.5 1.5-1.5-.7-1.5-1.5zM20 19h-1c0-2.8-1.9-5.2-4.5-5.9V12c0-.6-.4-1-1-1h-3c-.6 0-1 .4-1 1v1.1C6.9 13.8 5 16.2 5 19H4c-.6 0-1 .4-1 1s.4 1 1 1h16c.6 0 1-.4 1-1s-.4-1-1-1zM11 13h2v.5c-.3-.1-.7-.1-1-.1s-.7 0-1 .1V13zm1 1.5c2.5 0 4.5 2 4.5 4.5H7.5c0-2.5 2-4.5 4.5-4.5z"/>
    <path fill="currentColor" d="M12 3c-.6 0-1 .4-1 1v4c0 .6.4 1 1 1s1-.4 1-1V4c0-.6-.4-1-1-1z"/>
    <path fill="currentColor" d="M15 6c0-.6-.4-1-1-1h-4c-.6 0-1 .4-1 1s.4 1 1 1h4c.6 0 1-.4 1-1z"/>
  </symbol>

  <!-- Phone Icon -->
  <symbol id="phone" viewBox="0 0 24 24">
    <path fill="currentColor" d="M6.62 10.79c1.44 2.83 3.76 5.14 6.59 6.59l2.2-2.2c.27-.27.67-.36 1.02-.24 1.12.37 2.33.57 3.57.57.55 0 1 .45 1 1V20c0 .55-.45 1-1 1-9.39 0-17-7.61-17-17 0-.55.45-1 1-1h3.5c.55 0 1 .45 1 1 0 1.25.2 2.45.57 3.57.11.35.03.74-.25 1.02l-2.2 2.2z"/>
  </symbol>

  <!-- Ambulance Icon -->
  <symbol id="ambulance" viewBox="0 0 24 24">
    <path fill="currentColor" d="M18.92 6.01C18.72 5.42 18.16 5 17.5 5h-11C5.67 5 5 5.67 5 6.5S5.67 8 6.5 8H17l1.42 4.25c.08.24.08.5 0 .74L17 17.24c-.08.24-.08.5 0 .74L18.42 22H6.5C5.67 22 5 21.33 5 20.5S5.67 19 6.5 19H17l-1.42-4.25c-.08-.24-.08-.5 0-.74L17 9.76c.08-.24.08-.5 0-.74L15.58 5H6.5C5.67 5 5 5.67 5 6.5S5.67 8 6.5 8H17l1.92 5.76z"/>
    <circle fill="currentColor" cx="6.5" cy="15.5" r="1.5"/>
    <circle fill="currentColor" cx="17.5" cy="15.5" r="1.5"/>
    <path fill="currentColor" d="M12 6h2v2h-2V6zm0 3h2v2h-2V9z"/>
  </symbol>

  <!-- Injection Icon -->
  <symbol id="injection" viewBox="0 0 24 24">
    <path fill="currentColor" d="M6 15c-.83 0-1.58.34-2.12.88C3.34 16.42 3 17.17 3 18s.34 1.58.88 2.12C4.42 20.66 5.17 21 6 21s1.58-.34 2.12-.88C8.66 19.58 9 18.83 9 18s-.34-1.58-.88-2.12C7.58 15.34 6.83 15 6 15z"/>
    <path fill="currentColor" d="M19.07 4.93c-.39-.39-1.02-.39-1.41 0L16.24 6.34 14.9 5l1.42-1.41c.39-.39.39-1.02 0-1.41-.39-.39-1.02-.39-1.41 0L13.49 3.59c-.39.39-.39 1.02 0 1.41L15.9 7.41 9.49 13.83c-.39.39-.39 1.02 0 1.41.39.39 1.02.39 1.41 0L17.32 8.83 19.73 11.24c.39.39 1.02.39 1.41 0 .39-.39.39-1.02 0-1.41L19.73 8.41l1.41-1.41c.39-.39.39-1.02 0-1.41-.39-.39-1.02-.39-1.41 0L18.32 6.99 19.07 4.93z"/>
  </symbol>

  <!-- Home Icon -->
  <symbol id="home" viewBox="0 0 24 24">
    <path fill="currentColor" d="M10 20v-6h4v6h5v-8h3L12 3 2 12h3v8z"/>
  </symbol>

  <!-- Lightning Icon -->
  <symbol id="lightning" viewBox="0 0 24 24">
    <path fill="currentColor" d="M7 2v11h3v9l7-12h-4l4-8z"/>
  </symbol>

  <!-- Magnet Icon -->
  <symbol id="magnet" viewBox="0 0 24 24">
    <path fill="currentColor" d="M3 7v2c0 5.55 4.45 10 10 10s10-4.45 10-10V7h-4v2c0 3.32-2.68 6-6 6s-6-2.68-6-6V7H3z"/>
    <path fill="currentColor" d="M3 3v2h4V3H3zm14 0v2h4V3h-4z"/>
  </symbol>

  <!-- Radar Icon -->
  <symbol id="radar" viewBox="0 0 24 24">
    <path fill="currentColor" d="M12 2C6.48 2 2 6.48 2 12s4.48 10 10 10 10-4.48 10-10S17.52 2 12 2zm0 18c-4.41 0-8-3.59-8-8s3.59-8 8-8 8 3.59 8 8-3.59 8-8 8z"/>
    <circle fill="currentColor" cx="12" cy="12" r="3"/>
    <path fill="currentColor" d="M12 7c-2.76 0-5 2.24-5 5h2c0-1.66 1.34-3 3-3s3 1.34 3 3h2c0-2.76-2.24-5-5-5z"/>
  </symbol>

  <!-- Computer Icon -->
  <symbol id="computer" viewBox="0 0 24 24">
    <path fill="currentColor" d="M20 3H4c-1.1 0-2 .9-2 2v11c0 1.1.9 2 2 2h3l-1 1v2h12v-2l-1-1h3c1.1 0 2-.9 2-2V5c0-1.1-.9-2-2-2zm0 13H4V5h16v11z"/>
  </symbol>

  <!-- Search Icon -->
  <symbol id="search" viewBox="0 0 24 24">
    <path fill="currentColor" d="M15.5 14h-.79l-.28-.27C15.41 12.59 16 11.11 16 9.5 16 5.91 13.09 3 9.5 3S3 5.91 3 9.5 5.91 16 9.5 16c1.61 0 3.09-.59 4.23-1.57l.27.28v.79l5 4.99L20.49 19l-4.99-5zm-6 0C7.01 14 5 11.99 5 9.5S7.01 5 9.5 5 14 7.01 14 9.5 11.99 14 9.5 14z"/>
  </symbol>

  <!-- Location Icon -->
  <symbol id="location" viewBox="0 0 24 24">
    <path fill="currentColor" d="M12 2C8.13 2 5 5.13 5 9c0 5.25 7 13 7 13s7-7.75 7-13c0-3.87-3.13-7-7-7zm0 9.5c-1.38 0-2.5-1.12-2.5-2.5s1.12-2.5 2.5-2.5 2.5 1.12 2.5 2.5-1.12 2.5-2.5 2.5z"/>
  </symbol>

  <!-- Clock Icon -->
  <symbol id="clock" viewBox="0 0 24 24">
    <path fill="currentColor" d="M12,2A10,10 0 0,0 2,12A10,10 0 0,0 12,22A10,10 0 0,0 22,12A10,10 0 0,0 12,2M16.2,16.2L11,13V7H12.5V12.2L17,14.7L16.2,16.2Z"/>
  </symbol>

  <!-- Car Icon -->
  <symbol id="car" viewBox="0 0 24 24">
    <path fill="currentColor" d="M18.92 6.01C18.72 5.42 18.16 5 17.5 5h-11C5.67 5 5 5.67 5 6.5S5.67 8 6.5 8H17l1.42 4.25c.08.24.08.5 0 .74L17 17.24c-.08.24-.08.5 0 .74L18.42 22H6.5C5.67 22 5 21.33 5 20.5S5.67 19 6.5 19H17l-1.42-4.25c-.08-.24-.08-.5 0-.74L17 9.76c.08-.24.08-.5 0-.74L15.58 5H6.5C5.67 5 5 5.67 5 6.5S5.67 8 6.5 8H17l1.92 5.76z"/>
    <circle fill="currentColor" cx="6.5" cy="15.5" r="1.5"/>
    <circle fill="currentColor" cx="17.5" cy="15.5" r="1.5"/>
  </symbol>

  <!-- Map Icon -->
  <symbol id="map" viewBox="0 0 24 24">
    <path fill="currentColor" d="M20.5 3l-.16.03L15 5.1 9 3 3.36 4.9c-.21.07-.36.25-.36.48V20.5c0 .28.22.5.5.5l.16-.03L9 18.9l6 2.1 5.64-1.9c.21-.07.36-.25.36-.48V3.5c0-.28-.22-.5-.5-.5zM15 19l-6-2.11V5l6 2.11V19z"/>
  </symbol>
</svg>