<svg xmlns="http://www.w3.org/2000/svg" style="display: none;">
  <!-- Medical Icons -->
  <symbol id="stethoscope" viewBox="0 0 24 24">
    <path fill="currentColor" d="M19 10c-1.1 0-2 .9-2 2s.9 2 2 2 2-.9 2-2-.9-2-2-2zm0 3c-.55 0-1-.45-1-1s.45-1 1-1 1 .45 1 1-.45 1-1 1z"/>
    <path fill="currentColor" d="M12.5 2c-.28 0-.5.22-.5.5v6c0 2.76-2.24 5-5 5s-5-2.24-5-5v-6c0-.28-.22-.5-.5-.5S1 2.22 1 2.5v6c0 3.31 2.69 6 6 6 .34 0 .68-.03 1-.08V17c0 1.1.9 2 2 2h2c1.1 0 2-.9 2-2v-2.58c.32.05.66.08 1 .08 1.48 0 2.84-.54 3.88-1.44L19.5 14c.28 0 .5-.22.5-.5s-.22-.5-.5-.5l-.62-.94c.08-.18.12-.38.12-.56 0-1.66-1.34-3-3-3s-3 1.34-3 3c0 .18.04.38.12.56L12 13.5c-.28 0-.5.22-.5.5s.22.5.5.5l.62.94c-.32.29-.67.54-1.05.75V8.5c0-.28-.22-.5-.5-.5z"/>
  </symbol>

  <symbol id="microscope" viewBox="0 0 24 24">
    <path fill="currentColor" d="M9.5 8L8 10v4h2.5l1.5-2V8H9.5zM16 20H8v-1h8v1zm-2.5-3H8.5c-.28 0-.5.22-.5.5s.22.5.5.5h5c.28 0 .5-.22.5-.5s-.22-.5-.5-.5zM12 2L9 5v3h6V5l-3-3zm1 4h-2V4.5L12 3.5 13 4.5V6z"/>
  </symbol>

  <symbol id="phone" viewBox="0 0 24 24">
    <path fill="currentColor" d="M6.62 10.79c1.44 2.83 3.76 5.14 6.59 6.59l2.2-2.2c.27-.27.67-.36 1.02-.24 1.12.37 2.33.57 3.57.57.55 0 1 .45 1 1V20c0 .55-.45 1-1 1-9.39 0-17-7.61-17-17 0-.55.45-1 1-1h3.5c.55 0 1 .45 1 1 0 1.25.2 2.45.57 3.57.11.35.03.74-.25 1.02l-2.2 2.2z"/>
  </symbol>

  <symbol id="ambulance" viewBox="0 0 24 24">
    <path fill="currentColor" d="M18.92 6.01C18.72 5.42 18.16 5 17.5 5h-11C5.67 5 5 5.67 5 6.5S5.67 8 6.5 8H17l1.92-1.99zM19.5 9.5c-.83 0-1.5.67-1.5 1.5s.67 1.5 1.5 1.5 1.5-.67 1.5-1.5-.67-1.5-1.5-1.5zM12 8H8v2h4V8zm6 5.5c0 .83.67 1.5 1.5 1.5s1.5-.67 1.5-1.5-.67-1.5-1.5-1.5-1.5.67-1.5 1.5zM6.5 12c-.83 0-1.5.67-1.5 1.5S5.67 15 6.5 15s1.5-.67 1.5-1.5S7.33 12 6.5 12z"/>
    <path fill="currentColor" d="M18 10.48V9c0-1.1-.9-2-2-2H4c-1.1 0-2 .9-2 2v8c0 1.1.9 2 2 2h1.5c0-1.66 1.34-3 3-3s3 1.34 3 3h3c0-1.66 1.34-3 3-3s3 1.34 3 3H22c1.1 0 2-.9 2-2v-4.52l-6-2z"/>
  </symbol>

  <symbol id="syringe" viewBox="0 0 24 24">
    <path fill="currentColor" d="M6.8 10.61L5.37 9.19C5.73 8.79 6.59 8.03 7.36 7.36L8.84 8.84C8.07 9.61 7.31 10.47 6.8 10.61zM9.19 5.37L10.61 6.8C10.47 7.31 9.61 8.07 8.84 8.84L7.36 7.36C8.03 6.59 8.79 5.73 9.19 5.37zM18.36 2.64C17.61 1.89 16.39 1.89 15.64 2.64L14.22 4.05L19.95 9.78L21.36 8.36C22.11 7.61 22.11 6.39 21.36 5.64L18.36 2.64zM13.81 4.46L4.27 14L2 22L10 19.73L19.54 10.19L13.81 4.46z"/>
  </symbol>

  <symbol id="home" viewBox="0 0 24 24">
    <path fill="currentColor" d="M10 20v-6h4v6h5v-8h3L12 3 2 12h3v8z"/>
  </symbol>

  <symbol id="lightning" viewBox="0 0 24 24">
    <path fill="currentColor" d="M7 2v11h3v9l7-12h-4l4-8z"/>
  </symbol>

  <symbol id="radar" viewBox="0 0 24 24">
    <path fill="currentColor" d="M12 2C6.48 2 2 6.48 2 12s4.48 10 10 10 10-4.48 10-10S17.52 2 12 2zm-2 15l-5-5 1.41-1.41L10 14.17l7.59-7.59L19 8l-9 9z"/>
  </symbol>

  <symbol id="magnet" viewBox="0 0 24 24">
    <path fill="currentColor" d="M3 7v2c0 5.55 4.46 10 9.99 10C18.54 19 23 14.54 23 9V7h-4v2c0 3.33-2.67 6-6 6s-6-2.67-6-6V7H3zm4 0h2v2c0 1.11-.89 2-2 2V9c0-.55-.45-1-1-1s-1 .45-1 1v2c-1.11 0-2-.89-2-2V7h4zm10 0h4v2c0 1.11-.89 2-2 2V9c0-.55-.45-1-1-1s-1 .45-1 1v2c-1.11 0-2-.89-2-2V7z"/>
  </symbol>

  <symbol id="computer" viewBox="0 0 24 24">
    <path fill="currentColor" d="M20 3H4c-1.1 0-2 .9-2 2v11c0 1.1.9 2 2 2h3l-1 1v2h12v-2l-1-1h3c1.1 0 2-.9 2-2V5c0-1.1-.9-2-2-2zm0 13H4V5h16v11z"/>
  </symbol>

  <!-- Social Icons -->
  <symbol id="twitter" viewBox="0 0 24 24">
    <path fill="currentColor" d="M22.46 6c-.77.35-1.6.58-2.46.69.88-.53 1.56-1.37 1.88-2.38-.83.5-1.75.85-2.72 1.05C18.37 4.5 17.26 4 16 4c-2.35 0-4.27 1.92-4.27 4.29 0 .34.04.67.11.98C8.28 9.09 5.11 7.38 3 4.79c-.37.63-.58 1.37-.58 2.15 0 1.49.75 2.81 1.91 3.56-.71 0-1.37-.2-1.95-.5v.03c0 2.08 1.48 3.82 3.44 4.21a4.22 4.22 0 0 1-1.93.07 4.28 4.28 0 0 0 4 2.98 8.521 8.521 0 0 1-5.33 1.84c-.34 0-.68-.02-1.02-.06C3.44 20.29 5.7 21 8.12 21 16 21 20.33 14.46 20.33 8.79c0-.19 0-.37-.01-.56.84-.6 1.56-1.36 2.14-2.23z"/>
  </symbol>

  <symbol id="facebook" viewBox="0 0 24 24">
    <path fill="currentColor" d="M24 12.073c0-6.627-5.373-12-12-12s-12 5.373-12 12c0 5.99 4.388 10.954 10.125 11.854v-8.385H7.078v-3.47h3.047V9.43c0-3.007 1.792-4.669 4.533-4.669 1.312 0 2.686.235 2.686.235v2.953H15.83c-1.491 0-1.956.925-1.956 1.874v2.25h3.328l-.532 3.47h-2.796v8.385C19.612 23.027 24 18.062 24 12.073z"/>
  </symbol>

  <symbol id="linkedin" viewBox="0 0 24 24">
    <path fill="currentColor" d="M20.447 20.452h-3.554v-5.569c0-1.328-.027-3.037-1.852-3.037-1.853 0-2.136 1.445-2.136 2.939v5.667H9.351V9h3.414v1.561h.046c.477-.9 1.637-1.85 3.37-1.85 3.601 0 4.267 2.37 4.267 5.455v6.286zM5.337 7.433c-1.144 0-2.063-.926-2.063-2.065 0-1.138.92-2.063 2.063-2.063 1.14 0 2.064.925 2.064 2.063 0 1.139-.925 2.065-2.064 2.065zm1.782 13.019H3.555V9h3.564v11.452zM22.225 0H1.771C.792 0 0 .774 0 1.729v20.542C0 23.227.792 24 1.771 24h20.451C23.2 24 24 23.227 24 22.271V1.729C24 .774 23.2 0 22.222 0h.003z"/>
  </symbol>

  <symbol id="youtube" viewBox="0 0 24 24">
    <path fill="currentColor" d="M23.498 6.186a3.016 3.016 0 0 0-2.122-2.136C19.505 3.545 12 3.545 12 3.545s-7.505 0-9.377.505A3.017 3.017 0 0 0 .502 6.186C0 8.07 0 12 0 12s0 3.93.502 5.814a3.016 3.016 0 0 0 2.122 2.136c1.871.505 9.376.505 9.376.505s7.505 0 9.377-.505a3.015 3.015 0 0 0 2.122-2.136C24 15.93 24 12 24 12s0-3.93-.502-5.814zM9.545 15.568V8.432L15.818 12l-6.273 3.568z"/>
  </symbol>

  <symbol id="instagram" viewBox="0 0 24 24">
    <path fill="currentColor" d="M12 2.163c3.204 0 3.584.012 4.85.07 3.252.148 4.771 1.691 4.919 4.919.058 1.265.069 1.645.069 4.849 0 3.205-.012 3.584-.069 4.849-.149 3.225-1.664 4.771-4.919 4.919-1.266.058-1.644.07-4.85.07-3.204 0-3.584-.012-4.849-.07-3.26-.149-4.771-1.699-4.919-4.92-.058-1.265-.07-1.644-.07-4.849 0-3.204.013-3.583.07-4.849.149-3.227 1.664-4.771 4.919-4.919 1.266-.057 1.645-.069 4.849-.069zm0-2.163c-3.259 0-3.667.014-4.947.072-4.358.2-6.78 2.618-6.98 6.98-.059 1.281-.073 1.689-.073 4.948 0 3.259.014 3.668.072 4.948.2 4.358 2.618 6.78 6.98 6.98 1.281.058 1.689.072 4.948.072 3.259 0 3.668-.014 4.948-.072 4.354-.2 6.782-2.618 6.979-6.98.059-1.28.073-1.689.073-4.948 0-3.259-.014-3.667-.072-4.947-.196-4.354-2.617-6.78-6.979-6.98-1.281-.059-1.69-.073-4.949-.073zm0 5.838c-3.403 0-6.162 2.759-6.162 6.162s2.759 6.163 6.162 6.163 6.162-2.759 6.162-6.163c0-3.403-2.759-6.162-6.162-6.162zm0 10.162c-2.209 0-4-1.79-4-4 0-2.209 1.791-4 4-4s4 1.791 4 4c0 2.21-1.791 4-4 4zm6.406-11.845c-.796 0-1.441.645-1.441 1.44s.645 1.44 1.441 1.44c.795 0 1.439-.645 1.439-1.44s-.644-1.44-1.439-1.44z"/>
  </symbol>

  <!-- Location Icons -->
  <symbol id="map-pin" viewBox="0 0 24 24">
    <path fill="currentColor" d="M12 2C8.13 2 5 5.13 5 9c0 5.25 7 13 7 13s7-7.75 7-13c0-3.87-3.13-7-7-7zm0 9.5c-1.38 0-2.5-1.12-2.5-2.5s1.12-2.5 2.5-2.5 2.5 1.12 2.5 2.5-1.12 2.5-2.5 2.5z"/>
  </symbol>

  <symbol id="clock" viewBox="0 0 24 24">
    <path fill="currentColor" d="M12,2A10,10 0 0,0 2,12A10,10 0 0,0 12,22A10,10 0 0,0 22,12A10,10 0 0,0 12,2M16.2,16.2L11,13V7H12.5V12.2L17,14.7L16.2,16.2Z"/>
  </symbol>

  <symbol id="car" viewBox="0 0 24 24">
    <path fill="currentColor" d="M5,11L6.5,6.5H17.5L19,11M17.5,16A1.5,1.5 0 0,1 16,14.5A1.5,1.5 0 0,1 17.5,13A1.5,1.5 0 0,1 19,14.5A1.5,1.5 0 0,1 17.5,16M6.5,16A1.5,1.5 0 0,1 5,14.5A1.5,1.5 0 0,1 6.5,13A1.5,1.5 0 0,1 8,14.5A1.5,1.5 0 0,1 6.5,16M18.92,6C18.72,5.42 18.16,5 17.5,5H6.5C5.84,5 5.28,5.42 5.08,6L3,12V20A1,1 0 0,0 4,21H5A1,1 0 0,0 6,20V19H18V20A1,1 0 0,0 19,21H20A1,1 0 0,0 21,20V12L18.92,6Z"/>
  </symbol>

  <!-- Search Icon -->
  <symbol id="search" viewBox="0 0 24 24">
    <path fill="currentColor" d="M9.5,3A6.5,6.5 0 0,1 16,9.5C16,11.11 15.41,12.59 14.44,13.73L14.71,14H15.5L20.5,19L19,20.5L14,15.5V14.71L13.73,14.44C12.59,15.41 11.11,16 9.5,16A6.5,6.5 0 0,1 3,9.5A6.5,6.5 0 0,1 9.5,3M9.5,5C7,5 5,7 5,9.5C5,12 7,14 9.5,14C12,14 14,12 14,9.5C14,7 12,5 9.5,5Z"/>
  </symbol>
</svg>